<?xml version="1.0" encoding="utf-8"?>
<!-- Generator: Adobe Illustrator 21.0.0, SVG Export Plug-In . SVG Version: 6.00 Build 0)  -->
<svg version="1.1" id="Layer_1" xmlns="http://www.w3.org/2000/svg" xmlns:xlink="http://www.w3.org/1999/xlink" x="0px" y="0px"
	 viewBox="0 0 612 792" style="enable-background:new 0 0 612 792;" xml:space="preserve">
<style type="text/css">
	.st0{fill:#FFFFFF;}
	.st1{fill:#231F20;}
	.st2{fill:#CC2229;}
</style>
<ellipse transform="matrix(0.2985 -0.9544 0.9544 0.2985 -130.1322 468.3743)" class="st0" cx="253.5" cy="322.7" rx="147.9" ry="147.9"/>
<g>
	<polygon class="st1" points="303.8,237.6 287.3,232.4 283.3,245.3 273.5,242.3 277.5,229.3 261.3,224.3 250.6,258.6 266.7,263.7 
		271,250.2 280.8,253.3 276.6,266.8 293,271.9 303.8,237.6 	"/>
	<path class="st2" d="M330.8,283.7c2.9,0.9,6-0.4,6.9-3l3.1-9.9l4.7-15.1c0.8-2.6-1.1-5.5-4.1-6.4l-32.3-10.1l-4.6,14.7l31.2,9.8
		c1.6,0.5,2.4,1.8,2,3.2c-0.4,1.4-2.1,2.2-3.7,1.7l-31.1-9.7l-4.6,14.7C298.3,273.6,329.2,283.2,330.8,283.7L330.8,283.7z"/>
	<path class="st2" d="M247.3,251.5c-0.9,3-4,4.8-6.9,3.9l-10.8-3.4l-16.5-5.2c-2.8-0.9-4.3-4.3-3.4-7.3l2.8-8.9l16.1,5l-2.4,7.8
		c-0.5,1.7,0.2,3.1,1.8,3.6c1.6,0.5,3.3-0.5,3.8-2.1l8.6-27.4l16.1,5C256.3,222.7,247.8,249.9,247.3,251.5L247.3,251.5z"/>
</g>
<g>
	<path class="st2" d="M175.3,287.3l9.5-30.3l-11.6-3.6l1.2-3.7l27.5,8.6l-1.2,3.7l-11.6-3.6l-9.5,30.3L175.3,287.3z"/>
	<path class="st2" d="M194.9,279.3l1-3.1l11.5,3.6l-1,3.1L194.9,279.3z"/>
	<path class="st2" d="M210.6,289.3l4.1-0.4c0.4,5.1,3.3,8.5,8.2,10c5.1,1.6,9.1,0.6,10.3-2.9c1-3.4-0.4-5.6-6.9-10
		c-6.9-4.5-10.8-7.9-9-13.8c1.6-5.2,7.6-7.5,14.5-5.4c6.9,2.2,9.9,6.7,10.4,11.6l-4,0.7c-0.7-4.7-3.3-7.3-7.6-8.7
		c-4.6-1.4-8-0.2-8.9,2.7c-1.1,3.6,0.9,5.6,7.4,9.9c6.7,4.4,10.3,8.1,8.5,13.8c-1.8,5.6-8.2,7.8-15.9,5.4
		C214.7,300.3,210.9,295.3,210.6,289.3z"/>
	<path class="st2" d="M242.2,308.2l10.6-34l4.3,1.4l-4.5,14.2l18.7,5.9l4.5-14.2l4.3,1.4l-10.6,34l-4.3-1.4l5-16l-18.7-5.9l-5,16
		L242.2,308.2z"/>
	<path class="st2" d="M279,319.7l10.6-34l4.3,1.4l-10.6,34L279,319.7z"/>
	<path class="st2" d="M292.7,324l10.6-34l12.5,3.9c8.3,2.6,11.9,7.3,10,13.6c-1.7,5.5-5.9,7.3-11.4,6.7l4.2,18l-4.7-1.5l-4.1-17.4
		l-8.2-2.6l-4.6,14.7L292.7,324z M302.7,307.1l8,2.5c5.7,1.8,9.4,1.3,10.8-3.3c1.4-4.5-1.3-7-7.1-8.8l-7.9-2.5L302.7,307.1z"/>
	<path class="st2" d="M333.7,336.8l9.5-30.3l-11.6-3.6l1.2-3.7l27.5,8.6l-1.2,3.7l-11.6-3.6l-9.5,30.3L333.7,336.8z"/>
	<path class="st2" d="M160.8,329.2l9.6-30.7l3.9,1.2l-4,12.9l16.9,5.3l4-12.9l3.9,1.2l-9.6,30.7l-3.9-1.2l4.5-14.5l-16.9-5.3
		l-4.5,14.5L160.8,329.2z"/>
	<path class="st2" d="M191,338.6l21.3-27.2l4.1,1.3l2,34.5l-4-1.3l-0.5-9.8l-13.1-4.1l-6,7.8L191,338.6z M203,329.2l10.7,3.3
		l-0.7-16.1l-0.1,0L203,329.2z"/>
	<path class="st2" d="M223.9,348.9l9.6-30.7l3.9,1.2l-8.6,27.4l15.8,4.9l-1,3.3L223.9,348.9z"/>
	<path class="st2" d="M249.1,356.8l9.6-30.7l3.9,1.2l-8.6,27.4l15.8,4.9l-1,3.3L249.1,356.8z"/>
	<path class="st2" d="M286.3,351.5c3.1-9.9,11.1-14.1,19.2-11.5c8.1,2.5,12.2,10.5,9.1,20.4c-3.1,9.9-11,14.1-19.1,11.5
		C287.4,369.4,283.2,361.4,286.3,351.5z M310.7,359.2c2.5-8-0.3-14-6.3-15.8c-6-1.9-11.7,1.4-14.2,9.4c-2.5,8,0.3,14,6.3,15.9
		C302.5,370.5,308.2,367.2,310.7,359.2z"/>
	<path class="st2" d="M316.3,377.8l9.6-30.7l19.7,6.2l-1.1,3.4l-15.8-4.9l-3.1,9.9l11.6,3.6l-1,3.3l-11.6-3.6l-4.4,14.2L316.3,377.8
		z"/>
	<path class="st2" d="M143,386.3l14.6-46.6l29.9,9.3l-1.6,5.1l-24-7.5l-4.7,15l17.6,5.5l-1.6,5l-17.6-5.5l-6.7,21.5L143,386.3z"/>
	<path class="st2" d="M171.7,395.3l32.2-41.2l6.2,1.9l3,52.3l-6.1-1.9l-0.7-14.9l-19.8-6.2l-9.1,11.8L171.7,395.3z M189.8,381
		l16.1,5l-1.1-24.3l-0.1,0L189.8,381z"/>
	<path class="st2" d="M221.4,410.8l14.6-46.6l7.7,2.4l3.3,44.5l0.1,0l27.8-34.8l7.9,2.5l-14.6,46.6l-5.9-1.8l11.8-37.7l-0.1,0
		c-1.4,2.2-3.6,4.9-5.7,7.6l-21,25.4l-5.3-1.7l-2.8-32.9c-0.2-3.5-0.4-5.7-0.4-9.7l-0.1,0l-11.8,37.9L221.4,410.8z"/>
	<path class="st2" d="M280.5,429.3l14.6-46.6l30.5,9.6l-1.6,5.1l-24.6-7.7l-4.5,14.5l18.3,5.7l-1.6,5l-18.3-5.7l-5.3,16.9l26,8.1
		l-1.6,5L280.5,429.3z"/>
</g>
<polygon class="st2" points="275.9,187.6 312.5,199.1 284.6,223.9 "/>
<polygon class="st2" points="230.1,455.9 193.4,444.4 221.3,419.5 "/>
<polygon class="st2" points="387.1,344.7 375.6,381.3 350.8,353.4 "/>
<polygon class="st2" points="118.9,298.8 130.3,262.2 155.2,290.1 "/>
</svg>
